<?xml version="1.0" encoding="UTF-8" standalone="no"?>
<svg
   xmlns:dc="http://purl.org/dc/elements/1.1/"
   xmlns:cc="http://creativecommons.org/ns#"
   xmlns:rdf="http://www.w3.org/1999/02/22-rdf-syntax-ns#"
   xmlns:svg="http://www.w3.org/2000/svg"
   xmlns="http://www.w3.org/2000/svg"
   xmlns:sodipodi="http://sodipodi.sourceforge.net/DTD/sodipodi-0.dtd"
   xmlns:inkscape="http://www.inkscape.org/namespaces/inkscape"
   xml:space="preserve"
   enable-background="new 0 0 841.89 595.28"
   viewBox="0 0 531.38805 302.56499"
   height="302.565"
   width="531.38806"
   y="0px"
   x="0px"
   id="Layer_1"
   version="1.1"
   inkscape:version="0.91 r13725"
   sodipodi:docname="drone-map-icon.svg"><sodipodi:namedview
     pagecolor="#ffffff"
     bordercolor="#666666"
     borderopacity="1"
     objecttolerance="10"
     gridtolerance="10"
     guidetolerance="10"
     inkscape:pageopacity="0"
     inkscape:pageshadow="2"
     inkscape:window-width="877"
     inkscape:window-height="480"
     id="namedview4199"
     showgrid="false"
     inkscape:zoom="0.77999768"
     inkscape:cx="121.46283"
     inkscape:cy="151.2825"
     inkscape:window-x="0"
     inkscape:window-y="27"
     inkscape:window-maximized="0"
     inkscape:current-layer="Layer_1" /><metadata
     id="metadata4262"><rdf:RDF><cc:Work
         rdf:about=""><dc:format>image/svg+xml</dc:format><dc:type
           rdf:resource="http://purl.org/dc/dcmitype/StillImage" /><dc:title></dc:title></cc:Work></rdf:RDF></metadata><defs
     id="defs4260" /><path
     style="fill:#d1d3d4"
     id="path4230"
     d="m 230.52866,166.855 -230.34752399,0 c 0,0 -2.01363001,-24.926 7.38666999,-26.305 9.40102,-1.397 242.432204,-30.463 242.432204,-30.463 l 0,71.986 c 7.1e-4,0 -19.47135,2.772 -19.47135,-15.218 z" /><path
     style="fill:#d1d3d4"
     id="path4232"
     d="m 300.86371,166.85434 230.34294,0 c 0,0 2.01436,-24.925 -7.3824,-26.305 -9.40532,-1.397 -242.43621,-30.463 -242.43621,-30.463 l 0,71.987 c 0,0 19.47567,2.771 19.47567,-15.219 z" /><path
     style="fill:#939598"
     id="path4234"
     d="m 265.05897,302.565 0,-302.565 c 0,0 -15.044,12.921 -15.987,26.332 -0.938,13.428 0,245.265 0,245.265 l -54.055,4.643 0,13.422 54.055,12.903 15.987,0 z" /><path
     style="fill:#d1d3d4"
     id="path4236"
     d="m 265.05897,302.565 0,-302.565 c 0,0 15.243,12.921 16.188,26.332 0.953,13.428 0,245.265 0,245.265 l 54.791,4.643 0,13.422 -54.791,12.903 -16.188,0 z" /></svg>